<?xml version="1.0" encoding="utf-8"?>
<?xml-stylesheet type="text/xsl" href="rss1.xsl"?>
<rss version="2.0" xmlns:atom="http://www.w3.org/2005/Atom" xmlns:content="http://purl.org/rss/1.0/modules/content/" xmlns:dc="http://purl.org/dc/elements/1.1/" xmlns:media="http://search.yahoo.com/mrss/">
<channel>
 <title>Getty</title>
 <link>http://www.gettyimg.com/</link>
 <atom:link href="http://www.gettyimg.com/" rel="self" type="application/rss+xml" />

 
                <item>
                <title><![CDATA[【Requests】[REQ AUD] - DEVIL IN ME (FEAT. JOE KILLINGTON &amp; DUANE HARDEN) [PDM CLUB DUB MIX]]]></title>
                <link><![CDATA[https://sharemania.us/threads/devil-in-me-feat-joe-killington-duane-harden-pdm-club-dub-mix.219914/]]></link>
                <description><![CDATA[<article>
<blockquote class="messageText SelectQuoteContainer ugc baseHtml">
<a href="https://www.beatport.com/release/devil-in-me-feat-joe-killington-and-duane-harden-pdm-club-dub-mix/2094721" target="_blank" class="externalLink" rel="nofollow">https://www.beatport.com/release/de...ton-and-duane-harden-pdm-club-dub-mix/2094721</a>
<div class="messageTextEndMarker">&nbsp;</div>
</blockquote>
</article>]]></description>
                <author><![CDATA[pojishrog]]></author>
                </item>

                
                <item>
                <title><![CDATA[【Cinema Center】MOVIE - The.Poof.Point.2001.480p.AMZN.WEB-DL.DDP2.0.H.264-Samuel]]></title>
                <link><![CDATA[https://sharemania.us/threads/the-poof-point-2001-480p-amzn-web-dl-ddp2-0-h-264-samuel.219913/]]></link>
                <description><![CDATA[<article>
<blockquote class="messageText SelectQuoteContainer ugc baseHtml">
<div style="text-align: center"><b><span style="font-size: 26px">The Poof Point</span></b><br>
<a href="https://i.imgur.com/nxdn9ur.jpg" target="_blank" class="externalLink" rel="nofollow"><img src="https://i.imgur.com/mjzZO4u.jpg" class="bbCodeImage LbImage" alt="[​IMG]" data-url="https://i.imgur.com/mjzZO4u.jpg"></a><br>
<br>
<img src="https://i.imgur.com/NvDTQjE.png" class="bbCodeImage LbImage" alt="[​IMG]" data-url="https://i.imgur.com/NvDTQjE.png" style=""> 4.5 • 1 h 19 min • 2001 • <img src="https://i.imgur.com/4kRbTcP.png" class="bbCodeImage LbImage" alt="[​IMG]" data-url="https://i.imgur.com/4kRbTcP.png" style=""> • <img src="https://i.imgur.com/rzHe4tz.png" class="bbCodeImage LbImage" alt="[​IMG]" data-url="https://i.imgur.com/rzHe4tz.png" style=""><br>
<br>
<div class="bbCodeBlock bbCodeQuote">
<aside>
<blockquote class="quoteContainer"><div class="quote"><b><span style="font-size: 15px"><span style="font-family: 'Arial'">Description</span></span></b><br>
Two teens must save their parents from disappearing!</div><div class="quoteExpand">Click to expand...</div></blockquote>
</aside>
</div>
<div class="bbCodeBlock bbCodeQuote">
<aside>
<blockquote class="quoteContainer"><div class="quote"><span style="font-family: 'Arial'"><span style="font-size: 15px"><b>Details</b></span></span><br>
<b>Genres:</b> Science Fiction · Comedy · Kids · Playful</div><div class="quoteExpand">Click to expand...</div></blockquote>
</aside>
</div>
<div class="bbCodeBlock bbCodeQuote">
<aside>
<blockquote class="quoteContainer"><div class="quote"><b><span style="font-size: 15px"><span style="font-family: 'Arial'">More Details</span></span><br>
Audio languages:</b> English<br>
<b>Subtitles:</b> English [CC]<br>
<b>Directors:</b> ---<br>
<b>Producers:</b> Andy Cohen, Stu Krieger, Darlene Mowry, Mark Saltzman, Don Schain</div><div class="quoteExpand">Click to expand...</div></blockquote>
</aside>
</div>
<div class="bbCodeBlock bbCodeQuote">
<aside>
<blockquote class="quoteContainer"><div class="quote"><b><span style="font-size: 15px"><span style="font-family: 'Arial'">Source</span></span></b><br>
<img src="https://i.imgur.com/UquWuUD.png" class="bbCodeImage LbImage" alt="[​IMG]" data-url="https://i.imgur.com/UquWuUD.png" style=""></div><div class="quoteExpand">Click to expand...</div></blockquote>
</aside>
</div>
<div class="bbCodeBlock bbCodeQuote">
<aside>
<blockquote class="quoteContainer"><div class="quote"><b><span style="font-size: 15px">Release Name</span></b><br>
The.Poof.Point.2001.480p.AMZN.WEB-DL.DDP2.0.H.264-Samuel</div><div class="quoteExpand">Click to expand...</div></blockquote>
</aside>
</div>
<div class="ToggleTriggerAnchor bbCodeSpoilerContainer">
<button type="button" class="button bbCodeSpoilerButton ToggleTrigger Tooltip JsOnly" data-target="> .SpoilerTarget"><span>Spoiler: <span class="SpoilerTitle">Media Information</span></span></button>
<div class="SpoilerTarget bbCodeSpoilerText">General<br>
Complete name : The.Poof.Point.2001.480p.AMZN.WEB-DL.DDP2.0.H.264-Samuel.mkv<br>
Format : Matroska<br>
Format version : Version 4<br>
File size : 1.22 GiB<br>
Duration : 1 h 19 min<br>
Overall bit rate : 2 203 kb/s<br>
Frame rate : 23.976 FPS<br>
Encoded date : 2023-04-27 23:14:11 UTC<br>
Writing application : mkvmerge v72.0.0 ('Minuano (Six-eight)') 64-bit<br>
Writing library : libebml v1.4.4 + libmatroska v1.7.1<br>
<br>
Video<br>
ID : 1<br>
Format  : AVC<br>
Format/Info : Advanced Video Codec<br>
Format profile : Main@L3<br>
Format settings : CABAC / 4 Ref Frames<br>
Format settings, CABAC : Yes<br>
Format settings, Reference frames : 4 frames<br>
Codec ID : V_MPEG4/ISO/AVC<br>
Duration : 1 h 19 min<br>
Bit rate mode : Constant<br>
Bit rate : 2 000 kb/s<br>
Width : 640 pixels<br>
Height : 480 pixels<br>
Display aspect ratio : 4:3<br>
Frame rate mode : Constant<br>
Frame rate : 23.976 (24000/1001) FPS<br>
Color space : YUV<br>
Chroma subsampling : 4:2:0<br>
Bit depth : 8 bits<br>
Scan type : Progressive<br>
Bits/(Pixel*Frame) : 0.272<br>
Stream size : 1.10 GiB (90%)<br>
Default : Yes<br>
Forced : No<br>
Color range : Limited<br>
Color primaries : BT.709<br>
Transfer characteristics : BT.709<br>
Matrix coefficients : BT.709<br>
<br>
Audio<br>
ID : 2<br>
Format : E-AC-3<br>
Format/Info : Enhanced AC-3<br>
Commercial name : Dolby Digital Plus<br>
Codec ID : A_EAC3<br>
Duration : 1 h 19 min<br>
Bit rate mode : Constant<br>
Bit rate : 224 kb/s<br>
Channel(s) : 2 channels<br>
Channel layout : L R<br>
Sampling rate : 48.0 kHz<br>
Frame rate : 31.250 FPS (1536 SPF)<br>
Compression mode : Lossy<br>
Stream size : 127 MiB (10%)<br>
Language : English<br>
Service kind : Complete Main<br>
Default : Yes<br>
Forced : No<br>
<br>
Text<br>
ID : 3<br>
Format : UTF-8<br>
Codec ID : S_TEXT/UTF8<br>
Codec ID/Info : UTF-8 Plain Text<br>
Duration : 1 h 18 min<br>
Bit rate : 86 b/s<br>
Frame rate : 0.371 FPS<br>
Count of elements : 1741<br>
Stream size : 49.6 KiB (0%)<br>
Title : SDH<br>
Language : English<br>
Default : No<br>
Forced : No</div>
</div><br>
<b>Screenshots</b><br>
<img src="https://i.imgur.com/VyP2cxg.jpg" class="bbCodeImage LbImage" alt="[​IMG]" data-url="https://i.imgur.com/VyP2cxg.jpg" style=""><br>
<br>
<b>Download</b><br>
<div class="bbCodeBlock bbCodeVfcHH HiddenContent">
<div class="attribution type">Hidden Content:</div>
<blockquote>You must reply before you can see the hidden data contained here.</blockquote>
</div></div>
<div class="messageTextEndMarker">&nbsp;</div>
</blockquote>
</article>]]></description>
                <author><![CDATA[Samuel]]></author>
                </item>

                
                <item>
                <title><![CDATA[【Requests】[REQ AUD] - Poker Face (Glam As You Club Mix)]]></title>
                <link><![CDATA[https://sharemania.us/threads/poker-face-glam-as-you-club-mix.219912/]]></link>
                <description><![CDATA[<article>
<blockquote class="messageText SelectQuoteContainer ugc baseHtml">
Hi anyone for this pls<br>
<br>
<a href="https://open.qobuz.com/track/746741" target="_blank" class="externalLink" rel="nofollow">https://open.qobuz.com/track/746741</a>
<div class="messageTextEndMarker">&nbsp;</div>
</blockquote>
</article>]]></description>
                <author><![CDATA[ritoymu]]></author>
                </item>

                </channel></rss>